<?xml version="1.0" encoding="utf-8"?>
<svg id="master-artboard" viewBox="0 0 104.7431869506836 81.54216003417969" version="1.1" xmlns="http://www.w3.org/2000/svg" x="0px" y="0px" style="enable-background:new 0 0 1400 980;" width="104.7431869506836px" height="81.54216003417969px"><rect id="ee-background" x="0" y="0" width="104.7431869506836" height="81.54216003417969" style="fill: white; fill-opacity: 0; pointer-events: none;"/>


<g transform="matrix(81.66666412353516, 0, 0, 81.66666412353516, -420.75546073913574, -368.20087242126465)"><path fill-rule="evenodd" clip-rule="evenodd" d="M16.207 0.793031C16.3945 0.980558 16.4998 1.23487 16.4998 1.50003C16.4998 1.76519 16.3945 2.0195 16.207 2.20703L6.70698 11.707C6.51945 11.8945 6.26514 11.9998 5.99998 11.9998C5.73482 11.9998 5.48051 11.8945 5.29298 11.707L0.79298 7.20703C0.610822 7.01843 0.510027 6.76583 0.512306 6.50363C0.514584 6.24143 0.619753 5.99062 0.805162 5.80521C0.99057 5.6198 1.24138 5.51464 1.50358 5.51236C1.76578 5.51008 2.01838 5.61087 2.20698 5.79303L5.99998 9.58603L14.793 0.793031C14.9805 0.60556 15.2348 0.500244 15.5 0.500244C15.7651 0.500244 16.0195 0.60556 16.207 0.793031Z" fill="#714DDE" transform="matrix(0.06741632841455644, 0, 0, 0.06741632841455644, 5.21976924449901, 4.595739581874552)"/></g></svg>