<?xml version="1.0" encoding="utf-8"?>
<svg id="master-artboard" viewBox="0 0 96 95.99089050292969" version="1.1" xmlns="http://www.w3.org/2000/svg" x="0px" y="0px" style="enable-background:new 0 0 1400 980;" width="96px" height="95.99089050292969px"><defs><style id="ee-google-fonts">@import url(https://fonts.googleapis.com/css?family=Rubik:300,300italic,400,400italic,500,500italic,700,700italic,900,900italic);</style></defs><rect id="ee-background" x="0" y="0" width="96" height="95.99089050292969" style="fill: white; fill-opacity: 0; pointer-events: none;"/>








































<g transform="matrix(5.146170616149902, 0, 0, 5.146170616149902, 11.106781005859375, 10.0111083984375)"><path d="M7.00001 4.68493e-05C5.65001 4.68493e-05 4.67001 0.0160469 4.08001 0.0470469C3.55391 0.0673246 3.03277 0.156759 2.53001 0.313047C2.01846 0.495223 1.55386 0.788946 1.16988 1.17292C0.785908 1.55689 0.492186 2.0215 0.310009 2.53305C0.153722 3.03581 0.064287 3.55695 0.0440093 4.08305C0.0130093 4.67705 -0.00299072 5.65305 -0.00299072 7.00305C-0.00299072 8.35305 0.0130093 9.33305 0.0440093 9.92305C0.0630093 10.448 0.152009 10.973 0.310009 11.473C0.492009 11.984 0.785009 12.449 1.17001 12.833C1.55001 13.215 2.01601 13.499 2.53001 13.661C3.02701 13.839 3.55001 13.939 4.08001 13.957C4.67401 13.988 5.65001 14.004 7.00001 14.004C8.35001 14.004 9.33001 13.988 9.92001 13.957C10.4461 13.9368 10.9673 13.8473 11.47 13.691C11.9812 13.5082 12.4455 13.2143 12.8294 12.8304C13.2133 12.4465 13.5072 11.9822 13.69 11.471C13.8473 10.9684 13.936 10.4517 13.956 9.92105C13.987 9.32705 14.003 8.35105 14.003 7.00105C14.003 5.65105 13.993 4.68105 13.972 4.09105C13.9441 3.56125 13.8493 3.0371 13.69 2.53105C13.5079 2.0196 13.2144 1.55506 12.8306 1.17109C12.4468 0.787128 11.9824 0.493349 11.471 0.311047C10.9683 0.154759 10.4471 0.0653245 9.92101 0.0450468C9.32568 0.0137135 8.35234 -0.00195312 7.00101 -0.00195312L7.00001 4.68493e-05ZM6.50001 12.8C5.66668 12.8 5.02001 12.7897 4.56001 12.769C3.98822 12.7593 3.42013 12.6752 2.87001 12.519C2.56567 12.3994 2.28926 12.2183 2.05802 11.987C1.82678 11.7558 1.64568 11.4794 1.52601 11.175C1.36981 10.6249 1.28577 10.0568 1.27601 9.48505C1.25501 9.02705 1.24501 8.38505 1.24501 7.54505V6.54505C1.24501 5.71171 1.25534 5.06505 1.27601 4.60505C1.28201 4.03405 1.36601 3.46505 1.52601 2.91505C1.63901 2.60715 1.81767 2.32753 2.04958 2.09562C2.2815 1.8637 2.56111 1.68504 2.86901 1.57205C3.41913 1.41585 3.98722 1.33181 4.55901 1.32205C5.01701 1.30105 5.65901 1.29105 6.49901 1.29105H7.49901C8.33234 1.29105 8.97901 1.30138 9.43901 1.32205C10.01 1.32805 10.579 1.41205 11.129 1.57205C11.4371 1.68492 11.7169 1.86353 11.949 2.09545C12.1811 2.32737 12.3599 2.60705 12.473 2.91505C12.633 3.46405 12.717 4.03505 12.723 4.60505C12.743 5.04305 12.754 5.68505 12.754 6.54505V7.54505C12.754 8.37838 12.7437 9.02505 12.723 9.48505C12.7132 10.0568 12.6292 10.6249 12.473 11.175C12.3533 11.4794 12.1722 11.7558 11.941 11.987C11.7098 12.2183 11.4333 12.3994 11.129 12.519C10.581 12.679 10.009 12.763 9.43901 12.769C9.00201 12.789 8.35901 12.8 7.49901 12.8H6.50001ZM10.75 2.40005C10.5769 2.39891 10.4073 2.44947 10.2631 2.54524C10.1189 2.641 10.0065 2.77763 9.94032 2.93764C9.87417 3.09764 9.85727 3.27374 9.89177 3.44341C9.92628 3.61308 10.0106 3.76859 10.134 3.89005C10.2531 4.01431 10.4071 4.09948 10.5757 4.1343C10.7443 4.16912 10.9194 4.15194 11.078 4.08505C11.1814 4.03995 11.2741 3.9735 11.35 3.89005C11.51 3.72205 11.606 3.50505 11.625 3.27405C11.6212 3.04319 11.5277 2.82286 11.3645 2.6596C11.2012 2.49633 10.9809 2.40391 10.75 2.40005ZM7.00001 3.52005C6.38471 3.51613 5.77989 3.67926 5.25001 3.99205C4.72001 4.29905 4.27901 4.74005 3.97001 5.27205C3.66282 5.80411 3.5011 6.40767 3.5011 7.02205C3.5011 7.63643 3.66282 8.23998 3.97001 8.77205C4.27839 9.30297 4.72029 9.744 5.25182 10.0513C5.78335 10.3587 6.38603 10.5216 7.00001 10.524C7.92774 10.5206 8.8165 10.1506 9.47251 9.49455C10.1285 8.83854 10.4986 7.94978 10.502 7.02205C10.502 6.41205 10.339 5.80205 10.03 5.27205C9.72297 4.74052 9.28154 4.29909 8.75001 3.99205C8.22013 3.67926 7.61531 3.51613 7.00001 3.52005ZM7.00001 9.27005C6.40327 9.27005 5.83098 9.03299 5.40902 8.61104C4.98706 8.18908 4.75001 7.61678 4.75001 7.02005C4.75001 6.42331 4.98706 5.85101 5.40902 5.42906C5.83098 5.0071 6.40327 4.77005 7.00001 4.77005C7.59675 4.77005 8.16904 5.0071 8.591 5.42906C9.01296 5.85101 9.25001 6.42331 9.25001 7.02005C9.25001 7.61678 9.01296 8.18908 8.591 8.61104C8.16904 9.03299 7.59675 9.27005 7.00001 9.27005Z" fill="#714DDE"/></g></svg>